<?xml version="1.0" encoding="UTF-8" standalone="no"?>
<!-- Created with Inkscape (http://www.inkscape.org/) -->

<svg
   width="400"
   height="400"
   viewBox="0 0 400 400.00002"
   version="1.1"
   id="svg5"
   inkscape:version="1.2 (1:1.2.1+202207142221+cd75a1ee6d)"
   sodipodi:docname="tieba_post_store.svg"
   xml:space="preserve"
   xmlns:inkscape="http://www.inkscape.org/namespaces/inkscape"
   xmlns:sodipodi="http://sodipodi.sourceforge.net/DTD/sodipodi-0.dtd"
   xmlns="http://www.w3.org/2000/svg"
   xmlns:svg="http://www.w3.org/2000/svg"><sodipodi:namedview
     id="namedview7"
     pagecolor="#505050"
     bordercolor="#ffffff"
     borderopacity="1"
     inkscape:showpageshadow="0"
     inkscape:pageopacity="0"
     inkscape:pagecheckerboard="1"
     inkscape:deskcolor="#505050"
     inkscape:document-units="px"
     showgrid="false"
     inkscape:current-layer="layer1"
     showguides="true" /><defs
     id="defs2"><inkscape:path-effect
       effect="fillet_chamfer"
       id="path-effect1437"
       is_visible="true"
       lpeversion="1"
       nodesatellites_param="F,0,0,1,0,40,0,1 @ F,0,0,1,0,0,0,1 @ F,0,0,1,0,0,0,1 @ F,0,1,1,0,12.5,0,1 @ F,0,0,1,0,0,0,1 @ F,0,0,1,0,0,0,1 @ F,0,0,1,0,0,0,1 @ F,0,0,1,0,0,0,1 | F,0,0,1,0,0,0,1 @ F,0,0,1,0,0,0,1 @ F,0,0,1,0,0,0,1 @ F,0,0,1,0,0,0,1 @ F,0,0,1,0,40,0,1 @ F,0,0,1,0,0,0,1 @ F,0,0,1,0,0,0,1 @ F,0,0,1,0,0,0,1 @ F,0,0,1,0,0,0,1 @ F,0,0,1,0,0,0,1 @ F,0,0,1,0,0,0,1 @ F,0,0,1,0,0,0,1 | F,0,0,1,0,0,0,1 @ F,0,0,1,0,0,0,1 @ F,0,0,1,0,0,0,1 @ F,0,0,1,0,0,0,1 @ F,0,0,1,0,0,0,1 @ F,0,0,1,0,0,0,1 @ F,0,0,1,0,0,0,1 @ F,0,0,1,0,0,0,1 @ F,0,0,1,0,0,0,1 | F,0,0,1,0,0,0,1 @ F,0,0,1,0,0,0,1 @ F,0,1,1,0,12.5,0,1 @ F,0,0,1,0,0,0,1"
       unit="px"
       method="auto"
       mode="F"
       radius="12.5"
       chamfer_steps="1"
       flexible="false"
       use_knot_distance="true"
       apply_no_radius="true"
       apply_with_radius="true"
       only_selected="true"
       hide_knots="false" /></defs><g
     inkscape:label="Layer 1"
     inkscape:groupmode="layer"
     id="layer1"><g
       id="g5462"
       inkscape:label="g5462-orig"
       style="display:none"
       transform="translate(-56,-55.999998)"><path
         id="rect398"
         style="fill:#000000;stroke-width:25;stroke-miterlimit:2"
         d="m 143.5,181 v 125 h 25 V 178.5 A 12.5,12.5 135 0 1 181,166 h 42.5 v 140 h 25 V 141 h -65 a 40,40 135 0 0 -40,40 z m 145,-40 v 105 h -25 v 125 h 65 a 40,40 135 0 0 40,-40 v -85 h -55 v -55 h 55 v -25 h -55 v -25 z m -105,40 v 125 c 0,22.23939 -17.76064,40 -40,40 v 25 c 21.50765,0 40.65134,-10.59513 52.5,-26.81445 C 207.84864,360.40487 226.99233,371 248.5,371 v -25 c -22.23939,0 -40,-17.76061 -40,-40 V 181 Z m 105,90 h 55 v 62.5 A 12.5,12.5 135 0 1 331,346 h -42.5 z"
         inkscape:path-effect="#path-effect1437"
         inkscape:original-d="m 143.5,141 v 165 h 25 V 166 h 55 v 140 h 25 V 141 Z m 145,0 v 105 h -25 v 125 h 105 V 246 h -55 v -55 h 55 v -25 h -55 v -25 z m -105,40 v 125 c 0,22.23939 -17.76064,40 -40,40 v 25 c 21.50765,0 40.65134,-10.59513 52.5,-26.81445 C 207.84864,360.40487 226.99233,371 248.5,371 v -25 c -22.23939,0 -40,-17.76061 -40,-40 V 181 Z m 105,90 h 55 v 75 h -55 z"
         inkscape:label="tie" /><path
         style="color:#000000;fill:#000000;stroke-miterlimit:2;-inkscape-stroke:none"
         d="M 211,68.499998 C 131.75523,68.499998 68.5,137.2105 68.5,221 v 70 c 0,83.7895 63.25523,152.5 142.5,152.5 h 90 c 79.24477,0 142.5,-68.7105 142.5,-152.5 V 221 C 443.5,137.2105 380.24477,68.499998 301,68.499998 Z M 211,93.5 h 90 c 64.79509,0 117.5,56.16966 117.5,127.5 v 70 c 0,71.33034 -52.70491,127.5 -117.5,127.5 H 211 C 146.20491,418.5 93.5,362.33034 93.5,291 V 221 C 93.5,149.66966 146.20491,93.5 211,93.5 Z"
         id="rect1461"
         inkscape:label="border" /></g><path
       id="path5746"
       style="display:none;fill:#000000;stroke-width:25;stroke-miterlimit:2"
       d="M 155,12.500002 C 75.75531,12.500002 12.5,81.210582 12.5,165 v 70 c 0,83.78942 63.25531,152.5 142.5,152.5 h 90 c 79.24469,0 142.5,-68.71058 142.5,-152.49999 v -70 C 387.5,81.210582 324.24469,12.500002 245,12.500002 Z m 0,25 h 90 c 64.79503,0 117.5,56.169733 117.5,127.500008 v 70 C 362.5,306.33027 309.79503,362.5 245,362.5 H 155 C 90.204967,362.5 37.5,306.33027 37.5,235.00001 v -70 C 37.5,93.669735 90.204967,37.500002 155,37.500002 Z M 127.5,85.000005 A 40,40 0 0 0 87.499997,125.00001 v 125 H 112.5 v -127.5 a 12.5,12.5 0 0 1 12.5,-12.5 h 42.5 v 140 h 25 V 85.000005 Z m 105,0 V 190.00001 h -25 V 315 h 65 a 40,40 0 0 0 40,-40 v -84.99999 h -55 v -55 h 55 v -25 h -55 V 85.000005 Z m -105,40.000005 v 125 C 127.5,272.23937 109.73934,290 87.499997,290 v 25 C 109.00763,315 128.15135,304.40485 140,288.18555 151.84863,304.40485 170.99235,315 192.5,315 v -25 c -22.23937,0 -40,-17.76063 -40,-39.99999 v -125 z m 105,90 h 55 V 277.5 A 12.5,12.5 0 0 1 275,290 h -42.5 z"
       inkscape:label="tie-orig" /><path
       id="path6261"
       style="display:inline;fill:#000000;stroke-width:25;stroke-miterlimit:2"
       inkscape:label="tie"
       d="M 155,12.500002 C 75.75547,12.500002 12.5,81.210742 12.5,165 v 70 c 0,83.78926 63.25547,152.5 142.5,152.5 h 48.51562 C 201.26323,383.71571 200.05045,379.40359 200,375 c 0.0505,-4.40359 1.26323,-8.71571 3.51562,-12.5 H 155 C 90.205087,362.5 37.5,306.33013 37.5,235.00001 v -70 C 37.5,93.669875 90.205087,37.500002 155,37.500002 h 90 c 64.79491,0 117.5,56.169873 117.5,127.500008 v 70 c 0,2.00153 -0.11516,3.96858 -0.19727,5.94531 8.51181,-3.03542 17.99918,-1.241 24.81446,4.69335 0.22744,-3.5194 0.38281,-7.05968 0.38281,-10.63866 v -70 C 387.5,81.210742 324.24453,12.500002 245,12.500002 Z m -27.5,72.500003 c -22.09139,0 -40.000003,17.908605 -40.000003,40.000005 v 125 H 112.5 v -127.5 c 0,-6.90356 5.59644,-12.5 12.5,-12.5 h 42.5 v 140 h 25 V 85.000005 Z m 105,0 V 190.00001 h -25 v 62.125 c 1.11003,-2.01784 2.49356,-3.87262 4.11133,-5.51173 3.10301,-3.10314 6.96818,-5.33479 11.20703,-6.4707 3.16829,-0.77336 6.45729,-0.91933 9.68164,-0.42969 v -24.71288 h 55 V 277.5 c -0.0919,2.57508 -0.97735,5.05884 -2.53516,7.11133 L 300,299.64453 l 8.73438,-8.73437 C 311.07162,285.9226 312.3536,280.50609 312.5,275 v -85 h -55 v -55 h 55 v -25 h -55 V 85.000005 Z m -105,40.000005 v 125 C 127.5,272.23933 109.7393,290 87.499997,290 v 25 C 109.00759,315 128.15137,304.40481 140,288.18555 151.84861,304.40481 170.99239,315 192.5,315 v -25 c -22.23933,0 -40,-17.76067 -40,-39.99999 v -125 z m 80,151.45311 V 315 h 37.14453 l -33.0332,-33.0332 c -1.61792,-1.6397 -3.00145,-3.49515 -4.11133,-5.51368 z"
       sodipodi:nodetypes="sssscccsssssssccssssssccssccccscccccccccccccccccccccccscccccsccccccc" /><g
       style="display:none;fill:currentColor"
       id="g5908"
       transform="matrix(19.150965,0,0,19.150965,392.33095,281.8983)"
       inkscape:label="bootstrap-chevron-down"><path
         d="m -9.0305899,5.0141702 c 0,-0.276142 0.2238576,-0.5 0.5,-0.5 h 7.77833416 c 0.66666603,0 0.66666603,1.000001 0,1.000001 H -8.5305899 c -0.2761424,0 -0.5,-0.223859 -0.5,-0.500001 z"
         id="path5912"
         inkscape:label="platform" /><path
         d="m -8.9998047,-1.3464238 c 0.1953639,-0.1958584 0.5126361,-0.1958584 0.708,0 l 3.646,3.647 3.64599996,-3.647 c 0.472,-0.4719998 1.18000003,0.2360002 0.708,0.70799997 L -4.2918047,3.3615762 c -0.1953639,0.1958584 -0.5126361,0.1958584 -0.708,0 l -4,-4.00000003 c -0.1958588,-0.19536385 -0.1958588,-0.51263607 0,-0.70799997 z"
         id="path5899"
         inkscape:label="arrow" /></g><g
       id="g6197"
       inkscape:label="chevron-down"
       transform="translate(-56,-55.999998)"><path
         style="fill:#000000;fill-opacity:1;stroke:#000000;stroke-width:25;stroke-linecap:round;stroke-miterlimit:2;stroke-dasharray:none;stroke-opacity:1"
         d="M 281,431 H 431"
         id="path6181"
         sodipodi:nodetypes="cc"
         inkscape:label="platform" /><path
         style="fill:none;fill-opacity:1;stroke:#000000;stroke-width:25;stroke-linecap:round;stroke-linejoin:round;stroke-miterlimit:2;stroke-dasharray:none;stroke-opacity:1"
         d="M 285.28932,320.29 356,391.00068 426.71068,320.29"
         id="path6193"
         inkscape:label="arrow" /></g></g></svg>
